<svg width="100" height="100" viewBox="0 0 100 100" xmlns="http://www.w3.org/2000/svg">
    <!-- Background chamber -->
    <circle cx="50" cy="50" r="40" fill="none" stroke="#0066cc" stroke-width="2"/>
    
    <!-- Plasma glow effect -->
    <g opacity="0.6">
        <circle cx="50" cy="50" r="30" fill="none" stroke="#0066cc" stroke-width="1"/>
        <circle cx="50" cy="50" r="25" fill="none" stroke="#0066cc" stroke-width="0.5"/>
        <circle cx="50" cy="50" r="20" fill="none" stroke="#0066cc" stroke-width="0.3"/>
    </g>
    
    <!-- Energy paths -->
    <g stroke="#0066cc" fill="none" stroke-width="1.5">
        <path d="M30,70 Q50,20 70,70" stroke-dasharray="2 2"/>
        <path d="M20,60 Q50,10 80,60" stroke-dasharray="2 2"/>
        <path d="M35,65 Q50,30 65,65"/>
    </g>
    
    <!-- Particle effects -->
    <g fill="#0066cc">
        <circle cx="45" cy="45" r="1.5"/>
        <circle cx="55" cy="55" r="1.5"/>
        <circle cx="50" cy="40" r="1.5"/>
        <circle cx="40" cy="50" r="1.5"/>
        <circle cx="60" cy="50" r="1.5"/>
        <circle cx="50" cy="60" r="1.5"/>
    </g>
    
    <!-- Central energy core -->
    <g>
        <circle cx="50" cy="50" r="8" fill="#0066cc" opacity="0.3"/>
        <circle cx="50" cy="50" r="5" fill="#0066cc" opacity="0.6"/>
        <circle cx="50" cy="50" r="3" fill="#0066cc"/>
    </g>
    
    <!-- Energy indicators -->
    <g stroke="#0066cc" stroke-width="1">
        <line x1="20" y1="50" x2="30" y2="50"/>
        <line x1="70" y1="50" x2="80" y2="50"/>
        <line x1="50" y1="20" x2="50" y2="30"/>
        <line x1="50" y1="70" x2="50" y2="80"/>
    </g>
</svg>