<?xml version="1.0" standalone="no"?>
<!DOCTYPE svg PUBLIC "-//W3C//DTD SVG 20010904//EN"
 "http://www.w3.org/TR/2001/REC-SVG-20010904/DTD/svg10.dtd">
<svg version="1.0" xmlns="http://www.w3.org/2000/svg"
 width="1056.000000pt" height="992.000000pt" viewBox="0 0 1056.000000 992.000000"
 preserveAspectRatio="xMidYMid meet">
<metadata>
Created by potrace 1.16, written by Peter Selinger 2001-2019
</metadata>
<g transform="translate(0.000000,992.000000) scale(0.100000,-0.100000)"
fill="#243959" stroke="none">
<path d="M6003 8848 c-11 -13 -29 -39 -41 -59 -34 -56 -116 -127 -185 -159
-122 -57 -294 -84 -437 -69 -331 35 -451 36 -616 4 -190 -36 -355 -111 -461
-210 -110 -101 -167 -188 -248 -380 -53 -126 -68 -148 -122 -178 -83 -45 -129
-51 -235 -33 -226 38 -334 31 -469 -30 -88 -39 -124 -42 -179 -14 -48 25 -83
25 -136 1 -49 -22 -73 -68 -56 -106 12 -26 74 -75 136 -107 26 -13 58 -20 97
-19 32 0 61 -4 64 -9 3 -5 12 -7 19 -4 7 3 39 -22 71 -56 33 -33 62 -60 67
-60 4 0 8 22 8 49 0 48 1 50 33 57 47 10 304 7 432 -6 61 -6 207 -13 325 -16
118 -3 219 -9 223 -13 14 -14 -16 -26 -277 -116 -132 -46 -280 -99 -328 -118
-47 -19 -137 -47 -200 -62 -112 -27 -225 -76 -235 -103 -3 -7 7 -27 23 -43 28
-29 28 -30 11 -57 -50 -79 -54 -130 -12 -146 20 -7 91 10 100 24 13 21 61 9
140 -35 106 -58 144 -65 365 -75 214 -9 272 -24 338 -90 83 -84 79 -232 -8
-284 -33 -19 -106 -21 -163 -4 -35 11 -41 10 -53 -7 -37 -50 7 -117 89 -135
44 -10 64 -9 117 4 153 39 230 147 230 322 0 142 -58 262 -149 308 -46 24 -60
26 -243 29 -213 5 -286 19 -313 61 -47 72 45 146 305 249 187 74 315 116 495
164 94 25 192 52 220 59 168 47 322 -34 384 -202 44 -117 38 -253 -19 -420
-38 -113 -96 -209 -178 -296 -146 -154 -280 -222 -663 -338 -351 -106 -446
-143 -604 -232 -364 -206 -604 -445 -755 -753 -116 -237 -149 -380 -157 -666
-9 -321 16 -495 106 -749 78 -218 157 -347 301 -491 92 -91 176 -148 262 -178
75 -26 149 -65 175 -93 31 -33 59 -103 94 -236 40 -150 41 -217 6 -271 -35
-52 -70 -69 -166 -81 -125 -16 -134 -9 -185 147 -42 126 -105 172 -211 152
-92 -17 -111 -48 -37 -61 23 -4 50 -12 62 -18 11 -6 47 -64 80 -128 33 -64 66
-125 72 -134 19 -27 2 -32 -34 -11 -20 11 -56 54 -91 107 -79 120 -125 138
-215 84 -39 -24 -82 -84 -82 -115 0 -28 -2 -28 55 -3 26 11 54 20 63 20 9 0
47 -35 83 -79 46 -54 92 -95 149 -132 45 -29 78 -55 71 -57 -40 -13 -191 45
-290 112 -41 28 -61 36 -79 31 -81 -20 -133 -128 -102 -209 11 -29 30 -35 30
-10 0 22 31 72 48 79 7 3 44 -13 80 -34 37 -22 94 -47 127 -56 150 -43 228
-71 337 -121 65 -29 150 -63 190 -75 165 -49 197 -89 146 -180 -26 -46 -20
-56 20 -35 72 37 119 127 106 205 -15 91 -73 141 -166 141 -45 0 -63 5 -84 23
-22 19 -25 28 -19 55 9 45 54 85 122 111 227 88 264 108 309 167 27 34 29 45
35 168 5 96 14 158 34 231 23 81 29 131 35 265 7 151 10 172 39 248 37 100 41
167 10 205 -11 15 -74 53 -144 87 -119 58 -127 64 -170 125 -26 35 -69 104
-97 152 -62 110 -80 130 -143 159 -93 44 -200 23 -226 -44 -6 -15 -14 -71 -18
-124 -4 -54 -10 -101 -14 -104 -12 -12 -34 16 -62 79 -37 81 -41 200 -10 261
34 67 63 81 163 81 l87 0 135 -67 c74 -37 187 -101 250 -143 235 -157 345
-197 580 -209 258 -14 419 42 695 244 170 124 328 221 398 244 129 43 209 -1
232 -127 8 -41 45 -77 79 -77 40 0 99 43 122 90 56 109 10 236 -106 295 -83
42 -157 58 -240 52 -101 -7 -153 -29 -305 -127 -148 -96 -238 -136 -409 -185
-167 -47 -241 -58 -365 -53 -93 4 -117 9 -194 40 -153 63 -311 182 -386 291
-157 229 -120 662 78 911 110 138 227 234 516 426 256 170 280 188 406 308
102 97 159 169 236 300 30 50 58 92 63 92 5 0 14 -19 20 -42 43 -169 71 -232
128 -291 133 -139 360 -123 431 29 19 39 22 61 19 112 -6 97 -44 109 -115 36
-70 -70 -131 -83 -194 -41 -96 65 -112 169 -101 687 3 129 1 154 -21 227 -27
93 -69 167 -147 260 -74 88 -74 88 -67 106 13 34 195 83 279 75 65 -7 93 -28
129 -101 42 -83 55 -97 97 -97 101 0 153 128 98 245 -80 173 -329 221 -686
130 -231 -58 -390 -49 -390 23 0 36 33 67 134 123 142 79 196 142 196 226 0
21 7 48 15 60 17 24 71 43 122 43 58 0 132 36 191 93 l57 53 95 12 c52 6 115
18 140 27 58 20 150 92 195 153 66 91 104 232 70 265 -23 24 -58 21 -82 -5z
m-922 -504 c22 -27 -16 -83 -81 -119 -32 -18 -95 -70 -151 -127 l-95 -97 -36
11 c-57 17 -104 3 -155 -48 -55 -54 -90 -58 -133 -16 -62 63 -48 154 38 244
104 109 270 166 488 167 91 1 114 -2 125 -15z m-1031 -579 c28 -29 33 -91 10
-106 -19 -12 -241 -11 -260 1 -18 11 -19 10 60 45 36 15 83 40 105 56 50 34
56 35 85 4z"/>
<path d="M6788 8436 c-118 -35 -189 -90 -293 -229 -57 -74 -99 -158 -151 -292
-33 -88 -38 -111 -38 -190 -1 -156 57 -284 243 -540 97 -132 115 -161 107
-174 -3 -5 -45 -21 -93 -36 -190 -59 -288 -133 -334 -253 -26 -69 -35 -181
-20 -239 26 -97 128 -183 226 -191 67 -5 99 2 125 30 44 48 17 133 -54 166
-56 27 -76 55 -76 108 0 123 214 264 400 264 154 0 336 -97 406 -216 89 -152
94 -394 12 -561 -43 -87 -155 -191 -358 -333 -240 -167 -360 -289 -453 -460
-81 -148 -113 -276 -126 -497 -8 -142 -11 -154 -41 -211 -17 -32 -58 -89 -91
-126 -32 -37 -59 -76 -59 -88 0 -12 14 -46 31 -76 35 -62 42 -145 19 -204 -62
-153 -166 -197 -298 -128 -78 41 -114 37 -240 -25 -191 -93 -488 -200 -702
-255 -64 -16 -131 -36 -151 -44 -19 -8 -80 -20 -135 -27 -106 -13 -115 -12
-272 33 -81 23 -104 -30 -57 -134 38 -84 39 -106 15 -268 -46 -310 -24 -411
104 -471 89 -42 188 -52 416 -46 281 9 464 34 721 98 335 83 609 229 849 454
105 97 169 149 177 141 7 -6 -55 -99 -128 -191 -21 -27 -34 -52 -29 -53 6 -2
43 15 83 39 107 63 235 197 343 359 101 151 123 169 236 195 93 21 187 19 304
-7 141 -31 324 -30 456 1 92 22 121 23 191 5 21 -5 34 -1 50 13 12 11 56 37
97 57 80 39 131 81 124 100 -2 6 5 47 17 91 18 68 22 123 29 370 15 531 77
762 223 837 78 39 167 4 213 -84 28 -53 59 -25 42 36 -5 18 -4 32 2 36 7 4 5
17 -5 36 -35 70 -96 97 -203 87 -69 -7 -77 3 -24 31 55 28 149 29 250 3 113
-30 114 -27 42 90 -83 135 -116 151 -238 117 l-58 -16 -72 31 c-71 31 -75 32
-172 25 -125 -9 -168 5 -235 77 -153 164 -148 421 10 503 59 31 112 27 175
-12 29 -18 55 -31 57 -28 12 11 -9 76 -38 120 -43 64 -100 96 -173 96 -99 0
-166 -42 -212 -132 -73 -143 -71 -296 6 -524 103 -302 106 -581 10 -893 -26
-83 -25 -120 5 -222 30 -102 29 -96 5 -109 -56 -30 -95 18 -128 157 -27 115
-41 133 -100 133 -26 0 -144 3 -262 7 -322 9 -463 -12 -693 -104 -78 -31 -144
-52 -153 -49 -15 6 -16 19 -11 94 7 101 27 166 92 291 53 102 174 272 226 315
83 70 221 113 310 96 90 -17 135 -56 153 -135 22 -91 120 -101 196 -21 19 21
25 40 28 91 4 55 0 73 -25 127 -38 80 -70 118 -148 174 -61 43 -63 46 -55 75
10 35 26 57 55 79 99 73 150 152 186 292 31 118 30 221 -4 323 -51 155 -178
329 -313 432 -296 224 -480 372 -522 418 -55 60 -134 188 -164 268 -70 181
-48 382 57 541 71 108 159 172 276 202 106 27 223 -8 274 -83 43 -64 36 -78
-47 -103 -126 -37 -214 -110 -272 -225 -64 -128 -60 -292 9 -411 60 -103 207
-215 300 -229 17 -2 48 -10 70 -16 89 -26 295 -11 342 23 6 5 22 10 35 12 13
1 40 11 61 21 29 15 36 23 31 38 -5 16 -3 19 15 14 11 -3 21 -1 21 4 0 5 7 9
16 9 9 0 26 11 38 24 11 13 37 33 56 43 19 11 40 28 45 39 14 26 163 165 220
204 84 58 150 82 240 87 96 6 155 -5 273 -53 87 -36 102 -40 102 -25 0 14
-114 93 -186 129 -174 87 -358 82 -521 -16 -37 -22 -122 -88 -188 -147 -150
-132 -220 -180 -300 -204 -282 -87 -547 42 -549 269 -1 54 4 74 29 119 53 96
133 141 252 141 48 0 78 -6 118 -26 61 -28 90 -59 106 -114 23 -78 -54 -170
-141 -170 -73 0 -114 50 -108 131 3 43 2 44 -28 47 -59 6 -97 -81 -74 -167 55
-206 385 -196 485 14 64 136 11 290 -128 375 -49 29 -55 38 -71 89 -31 104
-133 206 -260 261 -126 53 -326 65 -458 26z m2157 -3045 c3 -5 1 -12 -5 -16
-5 -3 -10 1 -10 9 0 18 6 21 15 7z"/>
<path d="M2278 7136 c-148 -40 -311 -212 -353 -371 -22 -85 -19 -193 6 -268
40 -119 112 -197 244 -265 67 -35 74 -37 170 -37 94 0 104 2 175 36 41 19 116
63 165 97 93 63 157 92 204 92 39 0 124 -45 149 -79 80 -109 35 -244 -108
-320 -84 -45 -152 -50 -288 -22 -86 18 -113 20 -159 11 -91 -16 -221 -86 -200
-106 4 -4 36 0 71 9 93 25 151 21 253 -13 172 -59 294 -60 417 -2 89 42 139
91 183 179 33 66 37 82 36 151 0 276 -231 400 -495 266 -63 -32 -66 -30 -29
11 151 172 101 452 -104 583 -89 57 -229 77 -337 48z m229 -171 c84 -42 132
-122 132 -220 1 -103 -52 -165 -139 -165 -33 0 -48 6 -72 30 -30 30 -30 32
-24 100 7 68 7 69 -19 76 -31 8 -69 -15 -95 -59 -27 -43 -26 -125 0 -176 24
-47 91 -106 138 -122 35 -11 158 -8 197 6 l20 7 -20 -17 c-11 -10 -54 -34 -95
-54 -69 -33 -82 -36 -165 -36 -78 0 -97 4 -140 27 -64 33 -127 101 -150 160
-25 68 -18 185 17 261 79 169 272 253 415 182z"/>
<path d="M5226 5720 c-156 -40 -310 -208 -345 -378 -72 -348 235 -662 564
-577 216 57 347 252 332 495 -12 195 -109 340 -282 426 -60 30 -86 36 -151 39
-44 3 -96 0 -118 -5z"/>
<path d="M2038 5714 c-10 -3 -18 -8 -18 -11 0 -3 23 -25 50 -50 28 -25 50 -51
50 -58 0 -7 -13 -41 -29 -76 -15 -35 -34 -94 -41 -131 -11 -61 -40 -111 -56
-96 -3 4 -9 59 -14 125 -10 129 -30 205 -63 228 -58 41 -147 23 -208 -41 l-34
-37 66 7 c87 8 94 0 103 -119 4 -50 11 -108 16 -128 12 -53 -7 -58 -47 -11
-86 98 -105 114 -134 114 -43 0 -107 -36 -129 -73 -20 -32 -29 -135 -13 -150
3 -4 19 15 34 41 46 81 47 81 122 6 72 -71 73 -73 81 -205 7 -119 50 -199 108
-199 31 0 33 6 18 45 -15 39 -15 132 0 150 18 22 72 18 111 -8 90 -61 140
-219 110 -350 -10 -43 3 -73 81 -185 34 -47 63 -108 98 -206 82 -228 145 -326
209 -326 24 0 34 6 40 23 11 27 8 50 -26 185 -32 132 -24 171 34 172 36 0 50
25 57 102 26 269 75 453 183 677 58 123 69 161 45 161 -21 0 -65 -46 -116
-123 -77 -117 -115 -197 -150 -316 -24 -82 -37 -108 -58 -124 -41 -30 -75 -15
-115 52 -60 100 -129 319 -118 372 4 16 38 66 76 110 75 87 85 119 54 179 -12
24 -78 70 -98 70 -2 0 -4 -14 -5 -30 -1 -50 -109 -216 -127 -198 -5 4 -10 29
-12 55 -4 36 2 65 22 118 49 125 41 199 -24 238 -31 18 -104 29 -133 21z"/>
<path d="M4291 4561 c-16 -16 -21 -34 -21 -76 0 -68 16 -109 64 -157 121 -123
317 -178 481 -134 70 18 157 61 185 91 38 40 15 47 -75 23 -106 -27 -241 -29
-312 -5 -86 30 -164 95 -214 177 -24 40 -54 79 -66 87 -19 13 -24 12 -42 -6z"/>
<path d="M7663 3366 c-38 -33 -39 -93 -1 -133 47 -51 68 -95 68 -147 0 -67
-33 -120 -116 -190 -132 -109 -226 -142 -492 -177 -197 -25 -278 -22 -437 16
-227 55 -239 56 -312 9 -47 -31 -73 -70 -73 -111 0 -34 12 -51 58 -82 42 -29
41 -48 -2 -57 -40 -7 -120 25 -173 70 -40 34 -43 74 -12 141 24 52 64 88 151
136 169 95 336 220 470 351 52 50 72 92 60 126 -8 26 -41 6 -215 -132 -215
-170 -265 -202 -417 -274 -222 -104 -335 -141 -510 -162 -100 -13 -146 -32
-165 -71 -20 -38 -18 -75 5 -126 25 -56 54 -68 210 -88 88 -11 161 -28 245
-57 194 -65 225 -91 225 -180 -1 -56 -28 -115 -75 -163 -85 -84 -180 -97 -308
-41 -104 46 -145 52 -206 31 -54 -17 -105 -58 -98 -78 2 -7 34 -15 77 -20 41
-5 99 -17 129 -29 31 -11 66 -22 79 -25 13 -3 21 -11 19 -17 -4 -12 -66 -12
-169 0 -48 5 -63 2 -99 -17 -44 -25 -69 -63 -69 -104 0 -29 15 -33 29 -6 13
24 70 33 231 36 103 2 139 7 203 27 86 29 104 22 62 -22 -38 -40 -103 -60
-210 -66 -143 -9 -185 -31 -185 -96 0 -32 6 -34 34 -13 13 10 44 15 92 15 73
0 177 18 246 42 20 7 71 38 114 68 140 100 154 106 139 59 -10 -31 -165 -186
-199 -198 -15 -6 -71 -11 -124 -10 -61 1 -107 -4 -125 -12 -30 -14 -67 -74
-67 -109 0 -24 8 -25 31 -4 9 8 29 16 43 18 14 1 28 5 31 8 3 2 42 3 87 1 119
-5 163 8 244 75 38 31 73 63 77 70 5 7 43 52 84 100 131 152 191 245 232 362
54 153 112 225 215 271 27 11 143 41 259 65 418 87 468 108 607 248 110 112
142 156 200 277 73 153 67 253 -20 353 -61 69 -127 85 -177 42z"/>
<path d="M4540 2298 c-174 -66 -291 -207 -322 -388 -31 -182 68 -382 235 -471
55 -30 72 -34 159 -37 86 -4 102 -2 150 20 139 64 223 210 199 343 -12 63 -49
141 -83 172 -83 78 -256 68 -321 -19 -27 -37 -34 -109 -12 -132 16 -16 20 -14
66 29 40 38 55 45 88 45 71 0 132 -77 115 -146 -25 -106 -112 -165 -219 -151
-130 18 -224 124 -233 262 -12 201 160 359 390 357 112 -1 203 -40 281 -118
53 -54 88 -121 136 -259 38 -105 59 -142 108 -186 72 -63 257 -129 284 -102
12 12 7 15 -116 97 -69 45 -97 92 -149 247 -53 162 -96 238 -174 310 -107 99
-251 149 -426 148 -77 0 -114 -5 -156 -21z"/>
</g>
</svg>
