<?xml version="1.0" standalone="no"?>
<!DOCTYPE svg PUBLIC "-//W3C//DTD SVG 20010904//EN"
 "http://www.w3.org/TR/2001/REC-SVG-20010904/DTD/svg10.dtd">
<svg version="1.0" xmlns="http://www.w3.org/2000/svg"
 width="659.000000pt" height="249.000000pt" viewBox="0 0 659.000000 249.000000"
 preserveAspectRatio="xMidYMid meet">
<metadata>
Created by potrace 1.16, written by Peter Selinger 2001-2019
</metadata>
<g transform="translate(0.000000,249.000000) scale(0.100000,-0.100000)"
fill="#243959" stroke="none">
<path d="M1446 2264 c-32 -44 -72 -54 -218 -52 -197 2 -247 -23 -314 -154 -19
-38 -40 -69 -47 -70 -6 -1 -52 -3 -102 -4 -111 -2 -197 -15 -202 -30 -5 -16
45 -54 72 -54 12 0 28 -7 35 -15 16 -19 30 -19 30 0 0 17 35 18 195 6 l90 -6
-147 -49 c-129 -43 -147 -52 -146 -70 0 -12 -1 -28 -3 -36 -3 -11 5 -15 26
-16 17 -1 52 -9 78 -18 26 -9 69 -16 95 -16 63 0 94 -22 90 -63 -3 -29 -6 -32
-41 -35 -30 -3 -37 -7 -35 -20 5 -26 69 -28 99 -3 20 16 24 28 24 71 0 44 -4
55 -28 76 -23 20 -39 24 -93 24 -51 0 -66 4 -71 17 -12 31 49 60 255 118 75
22 104 13 129 -40 15 -31 15 -44 5 -91 -23 -109 -84 -162 -246 -208 -291 -85
-438 -265 -423 -521 8 -159 74 -277 181 -330 44 -21 57 -34 70 -66 22 -55 21
-106 -3 -119 -38 -20 -61 -12 -77 25 -17 40 -57 66 -76 47 -8 -8 -7 -13 6 -18
15 -6 46 -53 46 -71 0 -4 -14 7 -30 26 -28 30 -32 32 -52 19 -29 -20 -36 -41
-11 -36 11 2 35 -11 57 -30 43 -37 40 -40 -15 -12 -45 23 -79 14 -79 -20 0
-21 15 -27 24 -11 3 5 62 -14 132 -42 114 -47 125 -53 121 -74 -6 -30 9 -29
29 2 23 35 6 72 -33 77 -42 5 -34 30 17 54 74 35 72 30 99 245 5 37 12 72 15
78 14 21 -5 48 -44 66 -28 12 -50 33 -70 66 -45 74 -102 81 -115 13 -5 -28 -9
-34 -16 -23 -10 16 -12 60 -3 83 14 35 100 15 189 -44 55 -37 98 -50 165 -50
69 0 110 16 204 80 91 62 129 68 146 25 17 -46 70 -26 70 26 0 35 -42 69 -85
69 -18 0 -76 -21 -131 -47 -89 -43 -106 -48 -171 -48 -63 0 -76 3 -114 30 -86
60 -108 130 -75 238 21 70 47 99 159 175 96 66 197 158 197 182 0 24 19 7 34
-30 18 -45 64 -75 102 -66 30 8 58 49 49 75 -6 20 -6 20 -38 1 -58 -35 -77 1
-77 149 l0 109 -35 46 -34 45 42 12 c41 11 42 10 69 -21 39 -47 79 -25 64 35
-10 39 -58 58 -128 51 -186 -19 -178 -19 -178 -3 0 9 19 26 43 39 30 16 45 32
52 56 7 26 14 32 36 32 14 0 37 8 50 18 13 10 43 24 66 30 48 14 93 62 93 98
0 31 -20 30 -44 -2z m-236 -123 c0 -5 -15 -20 -32 -32 -18 -13 -37 -29 -41
-36 -4 -7 -18 -13 -30 -13 -13 0 -33 -7 -45 -16 -26 -18 -42 -11 -42 20 0 33
20 55 65 71 45 16 125 20 125 6z m-286 -182 c-3 -5 -22 -9 -42 -9 l-37 0 30
19 c29 18 62 11 49 -10z"/>
<path d="M1649 2157 c-41 -28 -99 -135 -99 -183 0 -39 19 -81 60 -134 44 -57
44 -58 3 -75 -71 -30 -106 -87 -88 -145 8 -25 66 -56 89 -47 22 9 20 44 -4 57
-48 26 0 89 73 97 84 10 147 -49 147 -138 0 -56 -27 -100 -90 -145 -130 -94
-175 -159 -186 -272 -5 -41 -15 -76 -30 -97 -20 -29 -21 -38 -11 -64 22 -60
-25 -108 -88 -88 -26 8 -42 5 -89 -17 -94 -43 -250 -79 -309 -71 -49 7 -50 7
-42 -16 5 -13 8 -65 6 -116 -2 -89 -1 -92 24 -109 41 -26 253 -15 360 20 78
25 163 73 218 124 29 28 38 20 10 -10 -30 -33 -5 -31 37 3 23 19 53 53 66 76
14 22 33 45 42 49 9 4 82 8 162 8 158 2 201 13 214 58 4 13 11 79 16 147 11
138 30 194 68 199 13 2 32 -4 42 -13 14 -13 19 -13 23 -3 6 18 -11 48 -28 48
-8 0 -15 5 -15 10 0 13 12 13 44 0 35 -13 39 0 10 38 -20 25 -32 31 -62 31
-125 -1 -143 4 -167 51 -33 64 -2 128 56 115 35 -8 38 6 7 35 -36 33 -80 25
-103 -21 -20 -38 -19 -79 6 -161 18 -60 20 -82 14 -147 -5 -42 -8 -100 -8
-128 0 -62 -22 -74 -33 -18 -10 54 -21 58 -149 53 -86 -4 -124 -10 -155 -25
-22 -12 -42 -18 -45 -14 -8 14 16 93 39 129 49 77 108 106 152 77 13 -8 24
-22 24 -29 0 -19 28 -28 51 -16 33 18 25 67 -18 107 l-36 35 31 29 c42 40 58
99 43 159 -16 58 -47 99 -124 156 -34 26 -77 61 -95 78 -96 88 -95 218 0 276
41 25 70 25 91 2 21 -23 21 -32 1 -32 -9 0 -31 -15 -49 -33 -93 -93 -24 -218
119 -218 65 0 82 7 164 77 70 60 113 73 174 55 55 -17 59 -7 8 19 -67 34 -122
29 -186 -17 -115 -82 -166 -98 -223 -68 -70 36 -47 135 32 135 18 0 38 -5 45
-12 17 -17 15 -55 -4 -62 -27 -10 -34 -7 -44 20 -9 22 -13 24 -25 14 -35 -29
3 -80 59 -80 26 0 41 8 61 32 32 38 28 71 -13 108 -15 14 -34 38 -42 53 -33
65 -163 90 -231 44z"/>
<path d="M3425 2010 c-4 -7 8 -27 29 -49 l36 -37 0 -188 c0 -169 -2 -187 -16
-176 -21 19 -281 365 -299 400 -21 41 -39 48 -132 48 -97 1 -112 -11 -82 -62
16 -28 19 -57 20 -257 1 -212 0 -228 -21 -276 -12 -29 -20 -55 -17 -60 4 -6
176 -9 220 -4 15 2 6 28 -17 50 -29 27 -46 89 -46 165 0 30 -4 65 -8 78 -5 13
-6 70 -3 128 l6 105 56 -75 c30 -41 79 -111 108 -155 30 -44 71 -98 93 -121
22 -23 54 -70 72 -105 l33 -64 69 -8 c88 -10 98 -6 90 36 -7 40 -16 234 -17
385 -1 103 1 117 25 163 39 77 38 79 -46 76 -40 -1 -89 2 -109 6 -26 6 -39 5
-44 -3z m-325 -106 c0 -8 -5 -12 -10 -9 -6 4 -8 11 -5 16 9 14 15 11 15 -7z"/>
<path d="M3791 2007 c-16 -16 -14 -25 13 -60 22 -30 24 -44 30 -192 7 -205 -3
-302 -38 -356 -15 -22 -25 -43 -22 -48 3 -4 53 -7 112 -6 121 1 131 7 93 58
-21 28 -24 45 -27 145 l-4 113 -26 -23 -25 -23 27 37 c25 34 27 44 29 145 2
94 6 114 27 151 18 31 21 45 13 53 -15 15 -188 20 -202 6z"/>
<path d="M4325 2012 c-4 -4 -43 -7 -87 -7 -98 0 -115 -14 -83 -67 18 -30 20
-51 20 -263 0 -221 -1 -232 -23 -274 -13 -24 -21 -46 -18 -49 3 -3 51 -5 107
-6 87 0 104 2 113 17 9 14 7 20 -7 29 -34 19 -47 73 -57 245 -12 209 -12 223
-1 223 5 0 53 -55 106 -122 53 -68 113 -143 134 -168 21 -25 45 -59 54 -76 9
-18 39 -56 66 -86 l51 -55 72 -6 c40 -3 77 -1 82 4 6 5 4 19 -3 36 -17 36 -26
276 -16 417 6 89 11 112 32 142 35 53 26 65 -49 64 -35 0 -81 1 -103 3 -50 3
-58 -20 -21 -64 26 -31 26 -31 26 -226 0 -182 -1 -194 -17 -182 -32 27 -209
256 -278 361 -69 104 -86 123 -100 110z"/>
<path d="M5045 2006 c-19 -14 -19 -15 6 -62 25 -48 25 -53 24 -254 -1 -204 -1
-205 -30 -265 -16 -33 -29 -64 -29 -69 -1 -5 109 -8 254 -6 140 2 278 3 307 2
29 -1 55 3 59 9 11 18 7 150 -5 162 -8 8 -20 2 -43 -20 -64 -60 -84 -65 -241
-58 -78 3 -145 9 -148 13 -4 4 -9 44 -12 89 -7 86 4 112 38 99 9 -3 72 -6 140
-7 87 -1 130 -6 142 -15 10 -7 21 -14 26 -14 11 0 8 148 -4 155 -5 4 -19 -1
-30 -11 -17 -15 -42 -19 -148 -21 -118 -3 -129 -2 -146 17 -14 16 -18 34 -16
77 1 32 7 63 13 71 9 10 46 13 169 10 146 -3 160 -5 188 -26 17 -13 36 -20 41
-17 6 3 10 35 10 69 0 68 -15 94 -47 82 -20 -8 -465 -8 -485 -1 -8 3 -22 -1
-33 -9z m475 -46 c0 -5 -5 -10 -11 -10 -5 0 -7 5 -4 10 3 6 8 10 11 10 2 0 4
-4 4 -10z m-363 -546 c-3 -3 -12 -4 -19 -1 -8 3 -5 6 6 6 11 1 17 -2 13 -5z"/>
<path d="M373 1789 c-43 -28 -67 -80 -60 -138 4 -36 13 -52 41 -78 47 -44 94
-44 159 -3 55 35 101 39 117 11 28 -53 -8 -93 -83 -91 -80 3 -92 1 -113 -15
-18 -13 -16 -14 21 -14 22 0 68 -3 102 -7 62 -6 63 -6 99 30 33 33 36 40 31
77 -8 62 -32 82 -90 76 -41 -4 -47 -2 -41 12 12 25 9 78 -6 105 -28 53 -120
72 -177 35z m113 -37 c19 -12 34 -50 28 -67 -16 -41 -64 -35 -64 8 0 12 -6 17
-17 15 -13 -2 -19 -14 -21 -41 -3 -35 -1 -39 33 -53 20 -8 40 -12 45 -9 6 4
10 2 10 -4 0 -6 -17 -13 -37 -17 -70 -13 -126 45 -104 108 17 49 40 68 80 68
20 0 41 -4 47 -8z"/>
<path d="M345 1411 c-3 -6 1 -13 9 -18 12 -7 13 -15 3 -50 -13 -51 -27 -56
-27 -10 0 18 -6 42 -14 52 -12 17 -17 18 -42 5 -28 -13 -28 -14 -6 -18 15 -2
22 -10 22 -27 0 -13 3 -32 6 -42 4 -13 1 -12 -14 6 -15 18 -25 22 -45 18 -26
-7 -42 -31 -31 -48 3 -6 11 -5 20 2 20 17 32 2 47 -56 14 -57 37 -73 37 -26 0
21 5 31 15 31 18 0 45 -50 45 -84 0 -14 16 -56 35 -95 19 -38 35 -73 35 -78 0
-4 9 -19 20 -33 28 -36 45 -16 31 36 -9 34 -8 41 8 54 13 10 20 33 24 73 3 34
18 86 36 123 16 35 26 64 21 64 -15 0 -58 -59 -70 -97 -25 -75 -41 -77 -71 -6
-24 56 -24 64 1 91 24 25 26 58 5 66 -10 3 -21 -6 -32 -27 -16 -29 -18 -30
-21 -10 -2 12 2 31 8 42 12 24 0 55 -26 65 -20 8 -22 8 -29 -3z"/>
<path d="M1225 1406 c-41 -18 -65 -48 -75 -90 -25 -110 66 -198 170 -167 45
13 75 52 86 108 19 99 -92 190 -181 149z"/>
<path d="M2920 1179 c-9 -5 -54 -7 -112 -3 -89 6 -99 5 -134 -16 -54 -34 -94
-103 -94 -162 0 -85 39 -132 160 -193 132 -66 161 -156 61 -186 -52 -16 -124
9 -185 62 -25 23 -46 39 -46 37 -7 -60 -4 -188 4 -189 6 -1 22 0 36 0 14 1 64
-3 111 -9 92 -11 129 -5 182 32 59 42 87 151 54 214 -22 41 -50 65 -149 123
-94 55 -123 91 -112 136 18 73 139 72 216 -2 14 -14 31 -23 36 -19 12 7 8 164
-4 176 -6 6 -15 5 -24 -1z"/>
<path d="M6300 1174 c-19 -9 -36 -10 -65 -4 -131 31 -233 -29 -251 -145 -13
-93 39 -163 156 -209 95 -37 143 -98 125 -155 -8 -27 -55 -51 -97 -51 -44 0
-126 40 -162 79 -17 17 -34 31 -38 31 -5 0 -7 -44 -6 -97 l3 -97 50 -1 c28 -1
89 -5 136 -10 79 -7 91 -6 134 15 67 32 97 83 98 162 1 105 -35 147 -175 211
-111 51 -143 103 -93 152 41 42 134 25 202 -38 13 -11 26 -17 30 -13 12 12 11
170 -1 178 -13 9 -15 9 -46 -8z m20 -434 c0 -5 -4 -10 -10 -10 -5 0 -10 5 -10
10 0 6 5 10 10 10 6 0 10 -4 10 -10z"/>
<path d="M3246 1155 c-109 -45 -181 -142 -193 -263 -5 -46 -3 -57 12 -68 18
-13 18 -14 1 -14 -16 0 -17 -6 -11 -37 9 -51 46 -131 78 -168 14 -17 49 -44
79 -60 50 -28 61 -30 185 -33 125 -4 132 -3 143 17 6 12 8 26 5 31 -3 5 -1 28
5 50 11 42 6 80 -11 80 -6 0 -27 -13 -47 -29 -70 -56 -148 -61 -229 -15 -79
45 -103 108 -93 241 7 87 35 129 112 167 84 42 160 32 209 -26 18 -21 32 -29
43 -25 13 5 16 22 16 89 l0 83 -123 2 c-109 2 -128 0 -181 -22z"/>
<path d="M3660 1165 c-9 -10 -7 -20 6 -40 15 -22 17 -53 16 -228 -2 -227 -7
-276 -33 -328 -10 -20 -15 -39 -12 -43 8 -7 203 -8 203 0 0 3 -11 22 -25 42
-22 32 -25 48 -25 117 l0 80 45 -3 c42 -4 49 -8 84 -56 22 -29 53 -76 71 -104
35 -57 55 -72 95 -72 14 0 40 -7 57 -16 27 -14 32 -14 45 -1 13 13 10 18 -25
43 -22 16 -48 42 -57 57 -10 16 -39 58 -66 94 -27 35 -49 68 -49 73 0 5 10 16
22 24 32 23 75 90 82 131 11 56 -17 139 -57 169 -54 41 -107 57 -202 62 -49 3
-107 6 -127 8 -23 3 -42 -1 -48 -9z m226 -80 c66 -17 82 -29 100 -72 18 -43 8
-88 -28 -118 -33 -28 -96 -48 -136 -43 l-27 3 -3 110 c-2 95 0 111 15 122 20
16 11 16 79 -2z"/>
<path d="M4934 1165 c-3 -7 4 -30 15 -51 20 -36 21 -55 21 -270 0 -230 0 -231
-25 -268 -14 -20 -25 -41 -25 -46 0 -12 -2 -12 155 -9 72 2 160 4 197 4 37 0
71 5 77 10 5 6 12 44 16 86 9 92 -3 107 -45 60 -34 -36 -59 -47 -138 -60 -93
-15 -92 -17 -92 230 0 213 5 246 41 285 29 31 12 38 -99 41 -69 1 -94 -2 -98
-12z"/>
<path d="M5517 1173 c-102 -4 -113 -14 -72 -67 l27 -36 2 -229 c1 -225 1 -230
-22 -261 -13 -17 -21 -37 -19 -44 4 -9 63 -12 231 -14 124 -1 226 -1 227 0 7
23 6 157 -1 168 -8 12 -15 10 -42 -17 -44 -42 -76 -53 -157 -53 -98 0 -100 3
-104 181 -5 195 4 284 32 313 25 26 27 51 5 60 -9 3 -16 5 -17 4 -1 -1 -42 -4
-90 -5z"/>
<path d="M4407 1151 c-102 -41 -165 -117 -194 -236 -29 -118 7 -245 93 -332
80 -80 250 -106 351 -54 86 44 153 149 172 269 14 91 -25 217 -87 279 -82 82
-232 115 -335 74z m164 -117 c53 -15 59 -15 80 0 36 25 45 19 18 -11 -14 -16
-42 -55 -64 -88 -21 -33 -52 -75 -69 -92 -16 -18 -27 -35 -24 -38 6 -6 97 85
138 138 27 34 42 25 60 -38 15 -55 9 -138 -14 -187 -36 -74 -147 -119 -233
-93 -97 29 -145 96 -145 200 0 104 47 181 129 210 49 18 56 18 124 -1z"/>
<path d="M985 1089 c-13 -20 6 -60 38 -79 43 -27 117 -27 148 0 l24 20 -47 -7
c-59 -7 -104 10 -124 48 -15 30 -28 36 -39 18z"/>
<path d="M1933 738 c19 -75 19 -79 1 -99 -48 -53 -165 -77 -280 -58 -59 10
-75 10 -88 0 -19 -16 -21 -48 -3 -54 6 -2 10 -7 7 -10 -13 -14 -55 19 -55 43
0 18 13 31 55 56 68 40 144 109 136 123 -4 6 -35 -11 -76 -42 -74 -56 -168
-98 -238 -107 -28 -3 -49 -12 -56 -22 -18 -30 5 -51 70 -64 113 -21 139 -43
113 -91 -19 -35 -47 -43 -91 -26 -21 9 -49 12 -63 9 -32 -8 -33 -36 -1 -36 13
0 33 -3 43 -7 13 -6 6 -9 -26 -13 -25 -3 -46 -11 -49 -18 -3 -10 11 -12 65 -6
37 3 73 8 78 11 6 2 1 -3 -9 -11 -11 -9 -30 -16 -42 -16 -33 0 -54 -10 -54
-27 0 -9 7 -13 18 -10 9 3 33 8 53 11 21 4 49 16 63 27 14 11 26 16 26 10 0
-19 -53 -51 -85 -51 -21 0 -35 -6 -39 -16 -8 -22 -9 -22 43 -16 38 4 52 12 96
58 28 29 66 83 84 119 37 72 40 73 195 106 32 7 75 25 97 41 38 28 89 110 89
145 0 31 -29 63 -57 63 -21 0 -24 -4 -20 -22z"/>
<path d="M1044 456 c-17 -8 -41 -27 -53 -42 -20 -25 -22 -38 -19 -88 4 -51 9
-63 36 -87 35 -31 82 -38 125 -18 59 27 62 127 4 148 -27 10 -73 -5 -81 -26
-9 -23 3 -34 25 -22 44 23 68 -21 31 -54 -25 -23 -35 -21 -71 9 -55 46 -30
122 46 143 63 18 120 -19 146 -95 13 -38 64 -84 93 -84 19 0 6 28 -16 35 -12
4 -26 29 -40 70 -23 68 -45 92 -109 113 -44 15 -78 15 -117 -2z"/>
</g>
</svg>
